<mxfile host="app.diagrams.net" agent="Mozilla/5.0 (Windows NT 10.0; Win64; x64) AppleWebKit/537.36 (KHTML, like Gecko) Chrome/132.0.0.0 Safari/537.36" version="26.0.14">
  <diagram name="PÃ¡gina-1" id="GpPf6B6R2ZVKpDjHa1tr">
    <mxGraphModel dx="1114" dy="558" grid="1" gridSize="10" guides="1" tooltips="1" connect="1" arrows="1" fold="1" page="1" pageScale="1" pageWidth="850" pageHeight="1100" math="0" shadow="0">
      <root>
        <mxCell id="0" />
        <mxCell id="1" parent="0" />
        <mxCell id="cKgZPjIiOfgoNVE4rqGW-2" value="" style="edgeStyle=orthogonalEdgeStyle;rounded=0;orthogonalLoop=1;jettySize=auto;html=1;" edge="1" parent="1" source="h7ho1m-yUNo7V59cZGKb-1" target="cKgZPjIiOfgoNVE4rqGW-1">
          <mxGeometry relative="1" as="geometry" />
        </mxCell>
        <mxCell id="h7ho1m-yUNo7V59cZGKb-1" value="Inicio" style="ellipse;whiteSpace=wrap;html=1;" parent="1" vertex="1">
          <mxGeometry x="365" y="30" width="120" height="80" as="geometry" />
        </mxCell>
        <mxCell id="cKgZPjIiOfgoNVE4rqGW-4" value="" style="edgeStyle=orthogonalEdgeStyle;rounded=0;orthogonalLoop=1;jettySize=auto;html=1;" edge="1" parent="1" source="cKgZPjIiOfgoNVE4rqGW-1" target="cKgZPjIiOfgoNVE4rqGW-3">
          <mxGeometry relative="1" as="geometry" />
        </mxCell>
        <mxCell id="cKgZPjIiOfgoNVE4rqGW-1" value="Ingresa numero 1" style="whiteSpace=wrap;html=1;" vertex="1" parent="1">
          <mxGeometry x="365" y="140" width="120" height="60" as="geometry" />
        </mxCell>
        <mxCell id="cKgZPjIiOfgoNVE4rqGW-6" value="" style="edgeStyle=orthogonalEdgeStyle;rounded=0;orthogonalLoop=1;jettySize=auto;html=1;" edge="1" parent="1" source="cKgZPjIiOfgoNVE4rqGW-3" target="cKgZPjIiOfgoNVE4rqGW-5">
          <mxGeometry relative="1" as="geometry" />
        </mxCell>
        <mxCell id="cKgZPjIiOfgoNVE4rqGW-3" value="Ingresa numero 2" style="whiteSpace=wrap;html=1;" vertex="1" parent="1">
          <mxGeometry x="365" y="240" width="120" height="60" as="geometry" />
        </mxCell>
        <mxCell id="cKgZPjIiOfgoNVE4rqGW-8" value="" style="edgeStyle=orthogonalEdgeStyle;rounded=0;orthogonalLoop=1;jettySize=auto;html=1;" edge="1" parent="1" source="cKgZPjIiOfgoNVE4rqGW-5" target="cKgZPjIiOfgoNVE4rqGW-7">
          <mxGeometry relative="1" as="geometry" />
        </mxCell>
        <mxCell id="cKgZPjIiOfgoNVE4rqGW-5" value="Ingresa numero 3" style="whiteSpace=wrap;html=1;" vertex="1" parent="1">
          <mxGeometry x="365" y="340" width="120" height="60" as="geometry" />
        </mxCell>
        <mxCell id="cKgZPjIiOfgoNVE4rqGW-12" value="" style="edgeStyle=orthogonalEdgeStyle;rounded=0;orthogonalLoop=1;jettySize=auto;html=1;" edge="1" parent="1" source="cKgZPjIiOfgoNVE4rqGW-7" target="cKgZPjIiOfgoNVE4rqGW-11">
          <mxGeometry relative="1" as="geometry" />
        </mxCell>
        <mxCell id="cKgZPjIiOfgoNVE4rqGW-19" value="" style="edgeStyle=orthogonalEdgeStyle;rounded=0;orthogonalLoop=1;jettySize=auto;html=1;" edge="1" parent="1" source="cKgZPjIiOfgoNVE4rqGW-7" target="cKgZPjIiOfgoNVE4rqGW-18">
          <mxGeometry relative="1" as="geometry" />
        </mxCell>
        <mxCell id="cKgZPjIiOfgoNVE4rqGW-7" value="Numero 1 es mayor que numero 2 y numero 3" style="rhombus;whiteSpace=wrap;html=1;" vertex="1" parent="1">
          <mxGeometry x="338" y="440" width="175" height="160" as="geometry" />
        </mxCell>
        <mxCell id="cKgZPjIiOfgoNVE4rqGW-15" value="" style="edgeStyle=orthogonalEdgeStyle;rounded=0;orthogonalLoop=1;jettySize=auto;html=1;" edge="1" parent="1" source="cKgZPjIiOfgoNVE4rqGW-11" target="cKgZPjIiOfgoNVE4rqGW-14">
          <mxGeometry relative="1" as="geometry" />
        </mxCell>
        <mxCell id="cKgZPjIiOfgoNVE4rqGW-17" value="" style="edgeStyle=orthogonalEdgeStyle;rounded=0;orthogonalLoop=1;jettySize=auto;html=1;" edge="1" parent="1" source="cKgZPjIiOfgoNVE4rqGW-11" target="cKgZPjIiOfgoNVE4rqGW-16">
          <mxGeometry relative="1" as="geometry" />
        </mxCell>
        <mxCell id="cKgZPjIiOfgoNVE4rqGW-11" value="Numero 2 es mayor que 3" style="rhombus;whiteSpace=wrap;html=1;" vertex="1" parent="1">
          <mxGeometry x="530" y="610" width="175" height="160" as="geometry" />
        </mxCell>
        <mxCell id="cKgZPjIiOfgoNVE4rqGW-13" value="No" style="text;html=1;align=center;verticalAlign=middle;whiteSpace=wrap;rounded=0;" vertex="1" parent="1">
          <mxGeometry x="530" y="490" width="60" height="30" as="geometry" />
        </mxCell>
        <mxCell id="cKgZPjIiOfgoNVE4rqGW-27" value="" style="edgeStyle=orthogonalEdgeStyle;rounded=0;orthogonalLoop=1;jettySize=auto;html=1;" edge="1" parent="1" source="cKgZPjIiOfgoNVE4rqGW-14" target="cKgZPjIiOfgoNVE4rqGW-24">
          <mxGeometry relative="1" as="geometry" />
        </mxCell>
        <mxCell id="cKgZPjIiOfgoNVE4rqGW-14" value="El mayor es el numero 2" style="whiteSpace=wrap;html=1;" vertex="1" parent="1">
          <mxGeometry x="393" y="780" width="120" height="60" as="geometry" />
        </mxCell>
        <mxCell id="cKgZPjIiOfgoNVE4rqGW-16" value="El mayor es el numero 3" style="whiteSpace=wrap;html=1;" vertex="1" parent="1">
          <mxGeometry x="720" y="780" width="120" height="60" as="geometry" />
        </mxCell>
        <mxCell id="cKgZPjIiOfgoNVE4rqGW-18" value="El mayor es el numero 1" style="whiteSpace=wrap;html=1;" vertex="1" parent="1">
          <mxGeometry x="60" y="780" width="120" height="60" as="geometry" />
        </mxCell>
        <mxCell id="cKgZPjIiOfgoNVE4rqGW-20" value="Si" style="text;html=1;align=center;verticalAlign=middle;whiteSpace=wrap;rounded=0;" vertex="1" parent="1">
          <mxGeometry x="200" y="490" width="60" height="30" as="geometry" />
        </mxCell>
        <mxCell id="cKgZPjIiOfgoNVE4rqGW-22" value="Si" style="text;html=1;align=center;verticalAlign=middle;whiteSpace=wrap;rounded=0;" vertex="1" parent="1">
          <mxGeometry x="453" y="660" width="60" height="30" as="geometry" />
        </mxCell>
        <mxCell id="cKgZPjIiOfgoNVE4rqGW-23" value="No" style="text;html=1;align=center;verticalAlign=middle;whiteSpace=wrap;rounded=0;" vertex="1" parent="1">
          <mxGeometry x="720" y="660" width="60" height="30" as="geometry" />
        </mxCell>
        <mxCell id="cKgZPjIiOfgoNVE4rqGW-24" value="Fin" style="ellipse;whiteSpace=wrap;html=1;" vertex="1" parent="1">
          <mxGeometry x="365" y="930" width="120" height="80" as="geometry" />
        </mxCell>
        <mxCell id="cKgZPjIiOfgoNVE4rqGW-25" value="" style="endArrow=classic;html=1;rounded=0;exitX=0.5;exitY=1;exitDx=0;exitDy=0;" edge="1" parent="1" source="cKgZPjIiOfgoNVE4rqGW-18">
          <mxGeometry width="50" height="50" relative="1" as="geometry">
            <mxPoint x="315" y="1020" as="sourcePoint" />
            <mxPoint x="365" y="970" as="targetPoint" />
            <Array as="points">
              <mxPoint x="120" y="970" />
            </Array>
          </mxGeometry>
        </mxCell>
        <mxCell id="cKgZPjIiOfgoNVE4rqGW-26" value="" style="endArrow=classic;html=1;rounded=0;entryX=1;entryY=0.5;entryDx=0;entryDy=0;exitX=0.5;exitY=1;exitDx=0;exitDy=0;" edge="1" parent="1" source="cKgZPjIiOfgoNVE4rqGW-16" target="cKgZPjIiOfgoNVE4rqGW-24">
          <mxGeometry width="50" height="50" relative="1" as="geometry">
            <mxPoint x="730" y="920" as="sourcePoint" />
            <mxPoint x="780" y="870" as="targetPoint" />
            <Array as="points">
              <mxPoint x="780" y="970" />
            </Array>
          </mxGeometry>
        </mxCell>
      </root>
    </mxGraphModel>
  </diagram>
</mxfile>
